<!-- icon666.com - MILLIONS vector ICONS FREE --><svg id="Layer_1" enable-background="new 0 0 68 68" viewBox="0 0 68 68" xmlns="http://www.w3.org/2000/svg"><g><g><path d="m59.92 9.71h-14.02l-2.43-4.98c-.81-1.66-2.53-2.73-4.37-2.73h-10.2c-1.45 0-2.81.64-3.73 1.75-.05.05-.08.11-.12.17l-1.5 2.82-1.45 2.97h-14.02c-2.26 0-4.09 1.83-4.09 4.09s1.83 4.09 4.09 4.09h.75l3.95 42.62c.27 3.11 2.87 5.49 5.99 5.49h30.46c3.12 0 5.72-2.38 5.99-5.49l3.95-42.62h.75c2.2599 0 4.09-1.83 4.09-4.09s-1.83-4.09-4.09-4.09zm-35.64 44.5c0 1.71-1.38 3.09-3.09 3.09-1.7 0-3.08-1.38-3.08-3.09v-25.67c0-1.71 1.3799-3.09 3.08-3.09 1.71 0 3.09 1.38 3.09 3.09zm12.81 0c0 1.71-1.39 3.09-3.09 3.09s-3.09-1.38-3.09-3.09v-25.67c0-1.71 1.39-3.09 3.09-3.09s3.09 1.38 3.09 3.09zm-12.77-44.5 1.01-2.06 1.44-2.69c.54-.61 1.31-.96 2.13-.96h10.2c1.09 0 2.09.63 2.57 1.61l2.0099 4.1zm25.57 44.5c0 1.71-1.38 3.09-3.08 3.09-1.71 0-3.09-1.38-3.09-3.09v-25.67c0-1.71 1.38-3.09 3.09-3.09 1.7 0 3.08 1.38 3.08 3.09z"></path></g></g></svg>